<svg width="40" height="40" viewBox="0 0 40 40" fill="none" xmlns="http://www.w3.org/2000/svg">
<path d="M31 19.5H9L8.14 9.12C8.10346 8.70283 8.24415 8.28954 8.52764 7.98132C8.81113 7.6731 9.21123 7.4984 9.63 7.5H30.37C30.7888 7.4984 31.1889 7.6731 31.4724 7.98132C31.7558 8.28954 31.8965 8.70283 31.86 9.12L31 19.5Z" fill="#DDDDDD"/>
<path d="M32.92 32.5H7.08C6.57646 32.4689 6.1166 32.2036 5.83766 31.7832C5.55873 31.3629 5.49296 30.836 5.66 30.36L9 19.5H31L34.34 30.36C34.507 30.836 34.4413 31.3629 34.1623 31.7832C33.8834 32.2036 33.4235 32.4689 32.92 32.5Z" fill="#DDDDDD"/>
<path d="M5.66001 29.53C5.49232 29.9902 5.56149 30.5034 5.84504 30.9027C6.12858 31.3021 6.59027 31.5366 7.08001 31.53H32.92C33.4097 31.5366 33.8714 31.3021 34.155 30.9027C34.4385 30.5034 34.5077 29.9902 34.34 29.53V29.53H5.67001L5.66001 29.53Z" fill="#D0D0D0"/>
<path d="M31.67 21.5L31 19.5H9L8.33 21.5H31.67V21.5Z" fill="#EAEAEA"/>
<path d="M7.67 23.5H32.33L31.67 21.5H8.33L7.67 23.5V23.5Z" fill="#D0D0D0"/>
<path d="M7 25.5H33L32.33 23.5H7.67L7 25.5V25.5Z" fill="#EAEAEA"/>
<path d="M6.33 27.5H33.67L33 25.5H7L6.33 27.5V27.5Z" fill="#D0D0D0"/>
<path d="M6.33 27.5L5.67 29.5H34.33L33.67 27.5H6.33V27.5Z" fill="#EAEAEA"/>
<circle cx="33.36" cy="31.6" r="5.5" fill="#1CC42C"/>
<path d="M35.8044 30.9889H33.9711V29.1556C33.9711 28.8181 33.6975 28.5444 33.36 28.5444C33.0225 28.5444 32.7489 28.8181 32.7489 29.1556V30.9889H30.9156C30.578 30.9889 30.3044 31.2625 30.3044 31.6C30.3109 31.9348 30.5808 32.2046 30.9156 32.2111H32.7489V34.0444C32.7554 34.3792 33.0252 34.6491 33.36 34.6556C33.6975 34.6556 33.9711 34.382 33.9711 34.0444V32.2111H35.8044C36.142 32.2111 36.4156 31.9375 36.4156 31.6C36.4156 31.2625 36.142 30.9889 35.8044 30.9889Z" fill="white"/>
</svg>
